<?xml version="1.0" encoding="UTF-8" standalone="no"?>
<svg
   xmlns:dc="http://purl.org/dc/elements/1.1/"
   xmlns:cc="http://creativecommons.org/ns#"
   xmlns:rdf="http://www.w3.org/1999/02/22-rdf-syntax-ns#"
   xmlns:svg="http://www.w3.org/2000/svg"
   xmlns="http://www.w3.org/2000/svg"
   xmlns:sodipodi="http://sodipodi.sourceforge.net/DTD/sodipodi-0.dtd"
   xmlns:inkscape="http://www.inkscape.org/namespaces/inkscape"
   width="64"
   height="76"
   viewBox="0 0 64 76"
   version="1.1"
   id="svg4"
   sodipodi:docname="icon-2.svg"
   style="fill:none"
   inkscape:version="0.92.3 (2405546, 2018-03-11)">
  <metadata
     id="metadata10">
    <rdf:RDF>
      <cc:Work
         rdf:about="">
        <dc:format>image/svg+xml</dc:format>
        <dc:type
           rdf:resource="http://purl.org/dc/dcmitype/StillImage" />
        <dc:title></dc:title>
      </cc:Work>
    </rdf:RDF>
  </metadata>
  <defs
     id="defs8" />
  <sodipodi:namedview
     pagecolor="#ffffff"
     bordercolor="#666666"
     borderopacity="1"
     objecttolerance="10"
     gridtolerance="10"
     guidetolerance="10"
     inkscape:pageopacity="0"
     inkscape:pageshadow="2"
     inkscape:window-width="1920"
     inkscape:window-height="1005"
     id="namedview6"
     showgrid="false"
     inkscape:zoom="3.0649351"
     inkscape:cx="-7.8050847"
     inkscape:cy="38.5"
     inkscape:window-x="-9"
     inkscape:window-y="-9"
     inkscape:window-maximized="1"
     inkscape:current-layer="svg4" />
  <path
     d="m 61.1085,22.501305 h -24.785 c 13.813,-6.899 14.917,-11.251 14.408,-13.6850002 -1.162,-3.963 -5.692,-7.023 -10.002,-5.407 -5.569,2.089 -7.137,10.3880002 -8.644,16.3870002 -1.924,-6.07 -3.784,-13.8140002 -8.136,-17.7370002 -1.261,-1.13799996 -3.095,-2.26400096 -5.763,-2.02799996 -4.026,0.356 -9.802,5.38199996 -7.458,10.98100016 2.251,5.378 9.687,8.777 14.578,11.489 H 2.8905 c -1.58545,0.0016 -2.87184925,1.2836 -2.879,2.869 v 11.322 c 0.0071508,1.5854 1.29355,2.8674 2.879,2.869 h 0.274 v 36.439 h 57.841 v -36.439 h 0.103 c 1.5858,-0.0011 2.8728,-1.2832 2.88,-2.869 v -11.322 c -0.0072,-1.5858 -1.2942,-2.8679 -2.88,-2.869 z M 42.4245,5.9443048 c 2.103,-0.31 4.982,1.299 5.255,3.209 0.393,2.7560002 -3.4,5.2550002 -5.086,6.4210002 -2.523,1.744 -4.928,2.643 -7.287,4.055 0.884,-3.69 2.549,-13.0110002 7.118,-13.6850002 z m -22.882,9.9680002 c -2.225,-1.485 -6.544,-4.431 -6.44,-7.7710002 0.112,-3.595 5.743,-6.57 8.814,-3.886 3.856,3.371 5.713,11.1050002 7.119,16.5570002 -3.249,-1.539 -6.328,-2.788 -9.493,-4.9 z m 5.972,57.114 H 6.1475 v -33.465 h 19.368 v 33.465 z m 0,-36.502 H 3.0575 v -10.986 h 22.457 z m 10.157,0 v 36.503 h -7.174 v -47.489 h 7.174 z m 22.351,36.502 h -19.367 v -33.465 h 19.367 z m 2.92,-36.502 h -22.287 v -10.986 h 22.287 z"
     id="path2"
     inkscape:connector-curvature="0"
     style="clip-rule:evenodd;fill:#81b3d2;fill-rule:evenodd" />
</svg>
