<?xml version="1.0" encoding="UTF-8" standalone="no"?>
<svg
   xmlns:dc="http://purl.org/dc/elements/1.1/"
   xmlns:cc="http://creativecommons.org/ns#"
   xmlns:rdf="http://www.w3.org/1999/02/22-rdf-syntax-ns#"
   xmlns:svg="http://www.w3.org/2000/svg"
   xmlns="http://www.w3.org/2000/svg"
   xmlns:sodipodi="http://sodipodi.sourceforge.net/DTD/sodipodi-0.dtd"
   xmlns:inkscape="http://www.inkscape.org/namespaces/inkscape"
   width="80.470001"
   height="76"
   viewBox="0 0 80.470001 76"
   version="1.1"
   id="svg10"
   sodipodi:docname="icon-3.svg"
   style="fill:none"
   inkscape:version="0.92.3 (2405546, 2018-03-11)">
  <metadata
     id="metadata16">
    <rdf:RDF>
      <cc:Work
         rdf:about="">
        <dc:format>image/svg+xml</dc:format>
        <dc:type
           rdf:resource="http://purl.org/dc/dcmitype/StillImage" />
        <dc:title></dc:title>
      </cc:Work>
    </rdf:RDF>
  </metadata>
  <defs
     id="defs14" />
  <sodipodi:namedview
     pagecolor="#ffffff"
     bordercolor="#666666"
     borderopacity="1"
     objecttolerance="10"
     gridtolerance="10"
     guidetolerance="10"
     inkscape:pageopacity="0"
     inkscape:pageshadow="2"
     inkscape:window-width="1920"
     inkscape:window-height="1005"
     id="namedview12"
     showgrid="false"
     inkscape:zoom="3.3714286"
     inkscape:cx="1.3135593"
     inkscape:cy="35"
     inkscape:window-x="-9"
     inkscape:window-y="-9"
     inkscape:window-maximized="1"
     inkscape:current-layer="svg10" />
  <path
     d="M 8.7586421,34.268332 H 74.89333 c 0.04454,-0.67246 0.07496,-1.34818 0.07496,-2.031504 0,-0.426725 -0.01727,-0.848018 -0.03455,-1.270397 v -1.08e-4 l -2.17e-4,-0.0038 C 74.211092,13.750136 58.957425,0 40.234992,0 21.513645,0 6.2589137,13.750136 5.5375666,30.96252 c -0.018468,0.423683 -0.034764,0.847366 -0.034764,1.274308 0,0.683324 0.030418,1.359044 0.076046,2.031504 z m 14.0999239,11.864205 -5.782727,-4.40956 -5.785986,4.40956 -6.7224113,-5.12113 1.869636,-2.669202 4.8527753,3.694731 5.787072,-4.407387 5.782727,4.407387 5.7849,-4.407387 5.788158,4.407387 5.788159,-4.407387 5.788159,4.407387 5.789245,-4.407387 5.787072,4.407387 5.790331,-4.4063 5.79685,4.407387 4.860402,-3.696904 1.868549,2.671374 -6.728951,5.118957 -5.79685,-4.40956 -5.790331,4.410647 -5.787072,-4.40956 -5.789245,4.40956 -5.788159,-4.40956 -5.788159,4.40956 -5.788158,-4.40956 z M 4.4924824,50.744161 H 75.978609 c 2.470397,0 4.491038,2.10755 4.491038,4.685497 v 3.806627 c 0,2.57686 -2.021728,4.685497 -4.492124,4.685497 h -1.010321 v 1.143943 C 74.967202,71.079848 70.250201,76 64.485942,76 H 15.984041 C 10.218696,76 5.5028029,71.079848 5.5028029,65.065725 V 63.921782 H 4.4924824 c -2.4703965,0 -4.49212823447,-2.108637 -4.49212823447,-4.685497 v -3.806627 c 0,-2.577947 2.02173173447,-4.685497 4.49212823447,-4.685497 z M 64.487029,72.694188 c 4.031504,0 7.311244,-3.422053 7.311244,-7.627376 h -0.0011 V 63.922868 H 8.6717328 v 1.143944 c 0,4.205323 3.2808042,7.627376 7.3123082,7.627376 z M 77.300717,59.236285 c 0,0.74742 -0.606192,1.380771 -1.323194,1.380771 H 4.4924824 c -0.7170016,0 -1.3221076,-0.632265 -1.3221076,-1.380771 v -3.806627 c 0,-0.74742 0.6061923,-1.380772 1.3221076,-1.380772 H 75.977523 c 0.717002,0 1.323194,0.632266 1.323194,1.380772 z M 71.762422,30.96252 C 71.033471,15.599131 57.172526,3.3058121 40.234992,3.3058121 23.297458,3.3058121 9.4387072,15.599131 8.7075829,30.96252 Z"
     id="path2"
     inkscape:connector-curvature="0"
     style="clip-rule:evenodd;fill:#81b3d2;fill-rule:evenodd;stroke-width:1.08636606" />
  <path
     d="m 37.952,23.29 c 1.0742,0 1.945,-0.9089 1.945,-2.03 0,-1.1212 -0.8708,-2.03 -1.945,-2.03 -1.0742,0 -1.945,0.9088 -1.945,2.03 0,1.1211 0.8708,2.03 1.945,2.03 z"
     id="path4"
     inkscape:connector-curvature="0"
     style="fill:#81b3d2" />
  <path
     d="m 30.172,18.26 c 1.0748,0 1.946,-0.9089 1.946,-2.03 0,-1.12119 -0.8712,-2.03005 -1.946,-2.03005 -1.0747,0 -1.946,0.90886 -1.946,2.03005 0,1.1211 0.8713,2.03 1.946,2.03 z"
     id="path6"
     inkscape:connector-curvature="0"
     style="fill:#81b3d2" />
  <path
     d="m 45.732,18.26 c 1.0748,0 1.946,-0.9089 1.946,-2.03 0,-1.12119 -0.8712,-2.03005 -1.946,-2.03005 -1.0747,0 -1.946,0.90886 -1.946,2.03005 0,1.1211 0.8713,2.03 1.946,2.03 z"
     id="path8"
     inkscape:connector-curvature="0"
     style="fill:#81b3d2" />
</svg>
