<svg
  <g
     id="g17"
     transform="matrix(0.75311067,0,0,0.75311067,16.447938,-11.2148)">
    <path
       id="path6"
       d="M 21.8,32.8 24.7,30.9 21.8,29 V 27.1 L 26.5,29.9 28,29 21.8,25.3 v -2.2 l 7.9,4.8 1.6,-0.9 -9.5,-5.9 V 19 l 12.9,7.9 v 8.4 L 21.8,43.1 8.7,35.5 v -2.2 l 13.1,7.9 V 39.1 L 8.7,31.4 v -1.9 l 13.1,7.6 z m 44.9,7.1 c 0.3,0 0.6,-0.1 0.8,-0.2 v 2 c -0.6,0.2 -1.2,0.3 -1.8,0.3 -1.1,0 -2,-0.4 -2.5,-1.5 -1.2,1 -2.7,1.6 -4.7,1.6 -2.3,0 -4.4,-1.2 -4.4,-3.8 0,-3.2 3,-4.2 5.5,-4.2 1.1,0 2.2,0.1 3.2,0.4 v -0.4 c 0,-1.6 -1.1,-2.6 -3.3,-2.6 -1.5,0 -3.1,0.3 -4.5,1 V 30 c 1.5,-0.5 3.1,-0.8 4.8,-0.8 3.5,0 5.8,1.7 5.8,5.4 V 39 c 0.1,0.7 0.6,0.9 1.1,0.9 M 57,38.2 c 0,1.2 1.1,1.8 2.3,1.8 1.3,0 2.6,-0.5 3.6,-1.5 V 36.4 C 62,36.2 61.1,36.1 60.2,36.1 58.7,36.2 57,36.7 57,38.2 m 18.5,-9.1 c 1.4,0 2.7,0.3 3.8,1 v 2.5 c -0.9,-0.6 -2.2,-1 -3.4,-1 -2.2,0 -4.4,1.2 -4.4,4.1 0,2.8 2.2,4.1 4.4,4.1 1.3,0 2.5,-0.3 3.6,-1 v 2.6 c -1.2,0.6 -2.5,0.9 -4.1,0.9 -3.3,0 -6.7,-2 -6.7,-6.5 -0.1,-4.7 3.5,-6.7 6.8,-6.7 m 18.1,10.8 c 0.3,0 0.6,-0.1 0.8,-0.2 v 2 c -0.6,0.2 -1.2,0.3 -1.8,0.3 -1.1,0 -2,-0.4 -2.5,-1.5 -1.2,1 -2.7,1.6 -4.7,1.6 -2.3,0 -4.4,-1.2 -4.4,-3.8 0,-3.2 3,-4.2 5.5,-4.2 1.1,0 2.2,0.1 3.2,0.4 v -0.4 c 0,-1.6 -1.1,-2.6 -3.3,-2.6 -1.5,0 -3.1,0.3 -4.5,1 V 30 c 1.5,-0.5 3.1,-0.8 4.8,-0.8 3.5,0 5.8,1.7 5.8,5.4 V 39 c 0.2,0.7 0.6,0.9 1.1,0.9 M 84,38.2 c 0,1.2 1.1,1.8 2.3,1.8 1.3,0 2.6,-0.5 3.6,-1.5 V 36.4 C 89,36.2 88.1,36.1 87.2,36.1 85.7,36.2 84,36.7 84,38.2 m 25,-14.5 v 18.1 h -2.5 v -2 c -1,1.2 -2.4,2.3 -4.8,2.3 -3.8,0 -6.2,-3 -6.2,-6.6 0,-3.6 2.4,-6.6 6.2,-6.6 2.2,0 3.6,1 4.5,1.9 v -7.3 h 2.8 z m -6.7,7.8 c -2.2,0 -3.9,1.7 -3.9,4.1 0,2.4 1.6,4.1 3.9,4.1 1.7,0 3.3,-1 4,-2.6 v -3 c -0.7,-1.6 -2.3,-2.6 -4,-2.6 M 118,29.1 c 4.9,0 6.7,4 5.9,7.6 h -9.4 c 0.3,2.2 2.5,3.2 4.8,3.2 1.4,0 2.7,-0.3 3.9,-0.9 v 2.4 c -1.1,0.5 -2.7,0.9 -4.5,0.9 -3.8,0 -7.1,-2.2 -7.1,-6.6 0.1,-4.6 3.5,-6.6 6.4,-6.6 m 0.2,2.3 c -1.9,0 -3.5,1.1 -3.7,3.2 h 6.9 c 0.1,-1.1 -0.5,-3.2 -3.2,-3.2 m 8.5,10.5 V 29.4 h 2.5 V 31 c 0.7,-0.8 2.1,-1.9 4.1,-1.9 1.9,0 3.2,0.8 3.9,2 1.1,-1.1 2.5,-2 4.4,-2 3.3,0 4.7,2.4 4.7,5 v 7.8 h -2.8 v -7.7 c 0,-1.6 -1,-2.6 -2.5,-2.6 -1.4,0 -2.4,0.9 -3.1,1.7 0,0.3 0.1,0.6 0.1,0.9 V 42 h -2.8 v -7.7 c 0,-1.6 -1,-2.6 -2.5,-2.6 -1.5,0 -2.6,1.1 -3.3,1.9 V 42 Z m 31.8,-12.5 h 2.9 l -5.8,14.1 c -1.3,3.2 -3.1,4.3 -5,4.3 -0.6,0 -1.1,-0.1 -1.6,-0.2 v -2.4 c 0.4,0.1 0.8,0.2 1.3,0.2 1.3,0 2.4,-1 3.1,-2.9 l 0.3,-0.6 -5.9,-12.5 h 3 l 4.2,9.4 z M 57.9,1.9 V 9 c 1.1,-1.1 2.5,-1.7 4,-1.7 3.1,0 5.1,2.1 5.1,5.1 v 7.7 h -2.8 v -7.3 c 0,-2 -1.2,-3 -2.9,-3 -1.6,0 -2.8,1.1 -3.5,2.1 v 8.2 H 55 V 1.9 Z m 16.7,1.3 v 4.4 h 4.5 V 10 h -4.5 v 5.7 c 0,1.6 0.8,2.2 2.4,2.2 0.9,0 1.7,-0.2 2.5,-0.5 v 2.4 c -1.1,0.4 -2.2,0.6 -3.3,0.5 -2.4,0 -4.3,-1.2 -4.3,-4.1 V 10 H 69.7 V 7.6 h 2.2 V 3.9 Z m 8,16.9 V 7.6 h 2.5 v 1.6 c 0.7,-0.7 2.1,-1.9 4.1,-1.9 1.9,0 3.2,0.8 3.9,2 1.1,-1.1 2.5,-2 4.4,-2 3.3,0 4.7,2.4 4.7,5 v 7.8 h -2.8 v -7.7 c 0,-1.6 -1,-2.6 -2.5,-2.6 -1.4,0 -2.4,0.9 -3.1,1.7 0,0.3 0.1,0.6 0.1,0.9 v 7.8 h -2.8 v -7.7 c 0,-1.6 -1,-2.6 -2.5,-2.6 -1.5,0 -2.6,1.1 -3.3,1.9 v 8.4 z M 106.3,1.9 h 2.8 V 20 h -2.8 z"
       inkscape:connector-curvature="0"
       style="fill:#000000" />
  </g>
</svg>
